<svg width="25" height="26" viewBox="0 0 25 26" fill="none" xmlns="http://www.w3.org/2000/svg">
<path d="M9.81707 10.7916H9.8169C9.45168 10.7916 9.10142 10.9304 8.84317 11.1773C8.58493 11.4242 8.43986 11.7591 8.43987 12.1083C8.43988 12.4575 8.58497 12.7924 8.84323 13.0393C9.10149 13.2862 9.45176 13.4249 9.81699 13.4249C10.1822 13.4249 10.5325 13.2862 10.7907 13.0393C11.049 12.7924 11.1941 12.4575 11.1941 12.1083C11.1941 11.7591 11.049 11.4242 10.7908 11.1773C10.5326 10.9304 10.1823 10.7916 9.81707 10.7916ZM14.7275 10.7916C14.4268 10.7672 14.1253 10.8303 13.8627 10.9724C13.6 11.1146 13.3884 11.3292 13.2555 11.5883C13.1225 11.8473 13.0745 12.1387 13.1177 12.4243C13.1609 12.7099 13.2932 12.9764 13.4974 13.1889C13.7016 13.4013 13.9682 13.5499 14.2622 13.6151C14.5562 13.6804 14.8639 13.6592 15.1451 13.5544C15.4264 13.4497 15.6679 13.2661 15.8382 13.0279C16.0085 12.7897 16.0996 12.5078 16.0996 12.2193C16.1077 12.0394 16.0785 11.8597 16.0139 11.6906C15.9493 11.5215 15.8504 11.3662 15.723 11.2336C15.5956 11.101 15.4421 10.9937 15.2713 10.9179C15.1004 10.842 14.9157 10.7991 14.7275 10.7916ZM21.2657 0H3.23849C2.87541 0.000820097 2.51607 0.0700095 2.18096 0.203617C1.84586 0.337225 1.54157 0.532634 1.28546 0.778686C1.02935 1.02474 0.82644 1.31661 0.688321 1.63764C0.550202 1.95867 0.479576 2.30257 0.480477 2.6497V20.0398C0.479592 20.3869 0.550228 20.7308 0.688354 21.0518C0.826479 21.3728 1.02939 21.6647 1.2855 21.9107C1.5416 22.1568 1.84589 22.3522 2.18099 22.4858C2.51608 22.6194 2.87542 22.6886 3.23849 22.6894H18.4944L17.7814 20.3098L19.5033 21.8404L21.1312 23.281L24.0237 25.725V2.6497C24.0246 2.30257 23.954 1.95867 23.8158 1.63764C23.6777 1.31661 23.4748 1.02474 23.2187 0.778686C22.9626 0.532634 22.6583 0.337225 22.3232 0.203617C21.9881 0.0700095 21.6287 0.000820097 21.2657 0ZM16.0728 16.7984V16.7984C16.0728 16.7984 15.5884 16.2453 15.1848 15.7565C16.16 15.537 17.0225 14.9948 17.6199 14.2259C17.1359 14.5339 16.6169 14.7885 16.0728 14.9847C15.4469 15.2401 14.7924 15.4257 14.1221 15.5378C12.9699 15.7407 11.7882 15.7363 10.6377 15.525C9.96226 15.3986 9.30026 15.2135 8.65999 14.972C8.32255 14.8479 7.99441 14.7017 7.67791 14.5346C7.63751 14.5088 7.59728 14.496 7.55689 14.4703C7.53664 14.4607 7.51841 14.4476 7.50308 14.4317C7.26103 14.3031 7.12627 14.2131 7.12627 14.2131C7.70209 14.9658 8.53484 15.5027 9.48065 15.7308C9.07719 16.2197 8.57937 16.7984 8.57937 16.7984C7.78023 16.819 6.98804 16.6514 6.27254 16.3105C5.55704 15.9696 4.94016 15.4657 4.47619 14.8433C4.51988 12.2357 5.18225 9.67163 6.41337 7.34444C7.49682 6.53089 8.81772 6.05898 10.1937 5.99388L10.3281 6.14829C9.0336 6.45455 7.82559 7.02984 6.79006 7.83323C6.79006 7.83323 7.08607 7.6789 7.58375 7.46023C8.55083 7.03815 9.58155 6.76469 10.6378 6.64995C10.7132 6.63496 10.7897 6.62633 10.8666 6.62415C11.7681 6.51187 12.6804 6.50326 13.5841 6.59851C15.0052 6.75364 16.3808 7.1731 17.6335 7.83323C16.6505 7.06818 15.5087 6.51139 14.2838 6.1997L14.4721 5.994C15.8481 6.05905 17.169 6.53096 18.2524 7.34456C19.4836 9.6717 20.1461 12.2358 20.1898 14.8433C19.722 15.4652 19.1024 15.9684 18.3849 16.3091C17.6674 16.6498 16.8737 16.8178 16.0728 16.7984Z" fill="#41798C"/>
</svg>
