<svg width="25" height="24" viewBox="0 0 25 24" fill="none" xmlns="http://www.w3.org/2000/svg">
<path d="M12.2367 7.95914C9.98919 7.95914 8.15505 9.71315 8.15505 11.8625C8.15505 14.0118 9.98919 15.7658 12.2367 15.7658C14.4842 15.7658 16.3184 14.0118 16.3184 11.8625C16.3184 9.71315 14.4842 7.95914 12.2367 7.95914ZM24.4786 11.8625C24.4786 10.2461 24.4939 8.64435 24.399 7.03089C24.3041 5.15683 23.857 3.49359 22.424 2.12318C20.9879 0.749844 19.2518 0.325251 17.2921 0.234476C15.6019 0.143701 13.9269 0.158342 12.2398 0.158342C10.5495 0.158342 8.87462 0.143701 7.18745 0.234476C5.22777 0.325251 3.48854 0.752772 2.05552 2.12318C0.619437 3.49652 0.175445 5.15683 0.080523 7.03089C-0.0143993 8.64728 0.000910777 10.249 0.000910777 11.8625C0.000910777 13.4759 -0.0143993 15.0806 0.080523 16.694C0.175445 18.5681 0.622499 20.2313 2.05552 21.6018C3.4916 22.9751 5.22777 23.3997 7.18745 23.4905C8.87768 23.5812 10.5526 23.5666 12.2398 23.5666C13.93 23.5666 15.6049 23.5812 17.2921 23.4905C19.2518 23.3997 20.991 22.9722 22.424 21.6018C23.8601 20.2284 24.3041 18.5681 24.399 16.694C24.497 15.0806 24.4786 13.4789 24.4786 11.8625ZM12.2367 17.8683C8.76133 17.8683 5.95652 15.186 5.95652 11.8625C5.95652 8.53893 8.76133 5.85667 12.2367 5.85667C15.7121 5.85667 18.5169 8.53893 18.5169 11.8625C18.5169 15.186 15.7121 17.8683 12.2367 17.8683ZM18.7741 7.01332C17.9627 7.01332 17.3074 6.38668 17.3074 5.6107C17.3074 4.83472 17.9627 4.20808 18.7741 4.20808C19.5855 4.20808 20.2408 4.83472 20.2408 5.6107C20.2411 5.79496 20.2033 5.97746 20.1297 6.14774C20.056 6.31801 19.948 6.47273 19.8118 6.60302C19.6755 6.73331 19.5137 6.83662 19.3357 6.90703C19.1576 6.97743 18.9668 7.01356 18.7741 7.01332Z" fill="#41798C"/>
</svg>
