<svg width="29" height="22" viewBox="0 0 29 22" fill="none" xmlns="http://www.w3.org/2000/svg">
<path d="M28.5567 2.67142C27.5408 3.10179 26.4495 3.39258 25.3023 3.52402C26.4726 2.85403 27.3705 1.79089 27.7939 0.525362C26.6989 1.1465 25.486 1.59781 24.1952 1.83975C23.1611 0.788239 21.689 0.129883 20.0587 0.129883C16.9297 0.129883 14.3918 2.55626 14.3918 5.55027C14.3918 5.97367 14.4429 6.38543 14.5378 6.78323C9.82595 6.55642 5.6518 4.39873 2.85606 1.12091C2.36942 1.9235 2.0896 2.85403 2.0896 3.84506C2.0896 5.72475 3.09086 7.38459 4.61039 8.35584C3.68091 8.32677 2.80739 8.08366 2.04337 7.67771V7.74751C2.04337 10.3728 3.99601 12.563 6.5898 13.0609C6.11289 13.1842 5.61287 13.2493 5.09703 13.2493C4.73205 13.2493 4.37559 13.2167 4.03007 13.1539C4.75152 15.3058 6.84406 16.8738 9.32471 16.9156C7.38423 18.3696 4.94009 19.2362 2.28547 19.2362C1.82803 19.2362 1.37667 19.2106 0.932617 19.1606C3.44124 20.6994 6.41947 21.5951 9.61912 21.5951C20.0454 21.5951 25.7451 13.3389 25.7451 6.17838C25.7451 5.94575 25.739 5.71079 25.7281 5.47815C26.8352 4.71279 27.7963 3.76015 28.5542 2.67491L28.5567 2.67142Z" fill="#41798C"/>
</svg>
