<svg width="469" height="896" viewBox="0 0 469 896" fill="none" xmlns="http://www.w3.org/2000/svg">
<g opacity="0.6">
<path opacity="0.23" d="M468.5 894.941C726.693 894.941 936 694.826 936 447.971C936 201.116 726.693 1 468.5 1C210.307 1 1 201.116 1 447.971C1 694.826 210.307 894.941 468.5 894.941Z" stroke="#EE6350" stroke-width="2" stroke-miterlimit="10"/>
<path opacity="0.23" d="M468.5 857.696C705.178 857.696 897.044 674.256 897.044 447.971C897.044 221.686 705.178 38.2452 468.5 38.2452C231.822 38.2452 39.956 221.686 39.956 447.971C39.956 674.256 231.822 857.696 468.5 857.696Z" stroke="#EE6350" stroke-width="2" stroke-miterlimit="10"/>
<path opacity="0.23" d="M468.5 820.451C683.664 820.451 858.088 653.686 858.088 447.971C858.088 242.256 683.664 75.4905 468.5 75.4905C253.336 75.4905 78.9119 242.256 78.9119 447.971C78.9119 653.686 253.336 820.451 468.5 820.451Z" stroke="#EE6350" stroke-width="2" stroke-miterlimit="10"/>
<path opacity="0.23" d="M468.5 783.206C662.149 783.206 819.132 633.116 819.132 447.971C819.132 262.826 662.149 112.736 468.5 112.736C274.851 112.736 117.868 262.826 117.868 447.971C117.868 633.116 274.851 783.206 468.5 783.206Z" stroke="#EE6350" stroke-width="2" stroke-miterlimit="10"/>
<path opacity="0.23" d="M468.5 745.951C640.629 745.951 780.167 612.541 780.167 447.971C780.167 283.401 640.629 149.99 468.5 149.99C296.371 149.99 156.833 283.401 156.833 447.971C156.833 612.541 296.371 745.951 468.5 745.951Z" stroke="#EE6350" stroke-width="2" stroke-miterlimit="10"/>
<path opacity="0.23" d="M468.5 708.706C619.114 708.706 741.211 591.971 741.211 447.971C741.211 303.971 619.114 187.235 468.5 187.235C317.886 187.235 195.789 303.971 195.789 447.971C195.789 591.971 317.886 708.706 468.5 708.706Z" stroke="#EE6350" stroke-width="2" stroke-miterlimit="10"/>
<path opacity="0.23" d="M468.5 671.461C597.599 671.461 702.255 571.401 702.255 447.971C702.255 324.541 597.599 224.481 468.5 224.481C339.401 224.481 234.745 324.541 234.745 447.971C234.745 571.401 339.401 671.461 468.5 671.461Z" stroke="#EE6350" stroke-width="2" stroke-miterlimit="10"/>
<path opacity="0.23" d="M468.5 634.206C576.079 634.206 663.289 550.826 663.289 447.971C663.289 345.116 576.079 261.735 468.5 261.735C360.921 261.735 273.711 345.116 273.711 447.971C273.711 550.826 360.921 634.206 468.5 634.206Z" stroke="#EE6350" stroke-width="2" stroke-miterlimit="10"/>
<path opacity="0.23" d="M468.5 596.961C554.564 596.961 624.333 530.256 624.333 447.971C624.333 365.686 554.564 298.98 468.5 298.98C382.436 298.98 312.667 365.686 312.667 447.971C312.667 530.256 382.436 596.961 468.5 596.961Z" stroke="#EE6350" stroke-width="2" stroke-miterlimit="10"/>
<path opacity="0.23" d="M468.5 559.716C533.05 559.716 585.377 509.686 585.377 447.971C585.377 386.256 533.05 336.226 468.5 336.226C403.95 336.226 351.623 386.256 351.623 447.971C351.623 509.686 403.95 559.716 468.5 559.716Z" stroke="#EE6350" stroke-width="2" stroke-miterlimit="10"/>
<path opacity="0.23" d="M468.5 522.47C511.535 522.47 546.421 489.116 546.421 447.971C546.421 406.826 511.535 373.471 468.5 373.471C425.465 373.471 390.579 406.826 390.579 447.971C390.579 489.116 425.465 522.47 468.5 522.47Z" stroke="#EE6350" stroke-width="2" stroke-miterlimit="10"/>
<path opacity="0.23" d="M468.5 485.216C490.015 485.216 507.456 468.541 507.456 447.971C507.456 427.401 490.015 410.725 468.5 410.725C446.985 410.725 429.544 427.401 429.544 447.971C429.544 468.541 446.985 485.216 468.5 485.216Z" stroke="#EE6350" stroke-width="2" stroke-miterlimit="10"/>
</g>
</svg>
