<svg version="1.0" xmlns="http://www.w3.org/2000/svg"
 width="1897.000000pt" height="1066.000000pt" viewBox="0 0 1897.000000 1066.000000"
 preserveAspectRatio="xMidYMid meet">

<g transform="translate(0.000000,1066.000000) scale(0.100000,-0.100000)"
fill="#000000" stroke="none">
<path d="M8843 10653 c417 -2 1097 -2 1510 0 414 1 73 2 -758 2 -830 0 -1169
-1 -752 -2z"/>
<path d="M9860 2850 c0 -5 -6 -10 -14 -10 -9 0 -13 -7 -11 -18 2 -11 -3 -19
-11 -19 -8 0 -14 5 -14 11 0 7 -3 7 -8 0 -4 -7 -16 -14 -27 -17 -13 -3 -8 -5
15 -7 19 -1 38 -2 43 -1 4 0 7 -9 7 -22 0 -19 -6 -23 -37 -25 -48 -4 -57 -12
-12 -12 26 0 30 -3 19 -10 -10 -7 6 -9 55 -9 50 1 63 3 45 9 -23 7 -23 8 10
10 l35 3 -35 7 -35 7 35 2 c25 1 31 4 21 10 -11 7 -9 10 10 14 13 2 -2 5 -33
6 -55 1 -76 15 -43 27 8 4 15 14 15 24 0 10 8 21 18 23 9 3 2 5 -15 6 -18 0
-33 -3 -33 -9z m57 -86 c-3 -3 -12 -4 -19 -1 -8 3 -5 6 6 6 11 1 17 -2 13 -5z"/>
<path d="M9768 2813 c7 -3 16 -2 19 1 4 3 -2 6 -13 5 -11 0 -14 -3 -6 -6z"/>
<path d="M9928 2813 c7 -3 16 -2 19 1 4 3 -2 6 -13 5 -11 0 -14 -3 -6 -6z"/>
<path d="M9918 2793 c6 -2 18 -2 25 0 6 3 1 5 -13 5 -14 0 -19 -2 -12 -5z"/>
<path d="M9785 2771 c19 -8 18 -9 -5 -13 -22 -5 -22 -5 6 -7 21 -1 31 4 31 14
0 10 -10 15 -26 14 -23 0 -24 -1 -6 -8z"/>
<path d="M9768 2693 c7 -3 16 -2 19 1 4 3 -2 6 -13 5 -11 0 -14 -3 -6 -6z"/>
<path d="M9828 2693 c7 -3 16 -2 19 1 4 3 -2 6 -13 5 -11 0 -14 -3 -6 -6z"/>
<path d="M9898 2693 c6 -2 18 -2 25 0 6 3 1 5 -13 5 -14 0 -19 -2 -12 -5z"/>
<path d="M9848 2673 c7 -3 16 -2 19 1 4 3 -2 6 -13 5 -11 0 -14 -3 -6 -6z"/>
</g>
</svg>
