<?xml version="1.0" standalone="no"?>
<svg xmlns:xlink="http://www.w3.org/1999/xlink" id="wave" style="transform:rotate(180deg); transition: 0.3s" viewBox="0 0 1440 490" version="1.1" xmlns="http://www.w3.org/2000/svg"><defs><linearGradient id="sw-gradient-0" x1="0" x2="0" y1="1" y2="0"><stop stop-color="rgba(255, 255, 255, 1)" offset="0%"/><stop stop-color="rgba(255, 255, 255, 1)" offset="100%"/></linearGradient></defs><path style="transform:translate(0, 0px); opacity:1" fill="url(#sw-gradient-0)" d="M0,294L120,285.8C240,278,480,261,720,245C960,229,1200,212,1440,245C1680,278,1920,359,2160,334.8C2400,310,2640,180,2880,114.3C3120,49,3360,49,3600,49C3840,49,4080,49,4320,106.2C4560,163,4800,278,5040,277.7C5280,278,5520,163,5760,122.5C6000,82,6240,114,6480,130.7C6720,147,6960,147,7200,196C7440,245,7680,343,7920,351.2C8160,359,8400,278,8640,228.7C8880,180,9120,163,9360,196C9600,229,9840,310,10080,343C10320,376,10560,359,10800,310.3C11040,261,11280,180,11520,163.3C11760,147,12000,196,12240,204.2C12480,212,12720,180,12960,212.3C13200,245,13440,343,13680,367.5C13920,392,14160,343,14400,326.7C14640,310,14880,327,15120,310.3C15360,294,15600,245,15840,220.5C16080,196,16320,196,16560,171.5C16800,147,17040,98,17160,73.5L17280,49L17280,490L17160,490C17040,490,16800,490,16560,490C16320,490,16080,490,15840,490C15600,490,15360,490,15120,490C14880,490,14640,490,14400,490C14160,490,13920,490,13680,490C13440,490,13200,490,12960,490C12720,490,12480,490,12240,490C12000,490,11760,490,11520,490C11280,490,11040,490,10800,490C10560,490,10320,490,10080,490C9840,490,9600,490,9360,490C9120,490,8880,490,8640,490C8400,490,8160,490,7920,490C7680,490,7440,490,7200,490C6960,490,6720,490,6480,490C6240,490,6000,490,5760,490C5520,490,5280,490,5040,490C4800,490,4560,490,4320,490C4080,490,3840,490,3600,490C3360,490,3120,490,2880,490C2640,490,2400,490,2160,490C1920,490,1680,490,1440,490C1200,490,960,490,720,490C480,490,240,490,120,490L0,490Z"/></svg>