<svg id="visual" viewBox="0 0 960 300" width="960" height="300" xmlns="http://www.w3.org/2000/svg" xmlns:xlink="http://www.w3.org/1999/xlink" version="1.1"><rect x="0" y="0" width="960" height="300" fill="#FFFFFF"></rect><path d="M0 96L40 108.3C80 120.7 160 145.3 240 152.7C320 160 400 150 480 135.5C560 121 640 102 720 104C800 106 880 129 920 140.5L960 152L960 0L920 0C880 0 800 0 720 0C640 0 560 0 480 0C400 0 320 0 240 0C160 0 80 0 40 0L0 0Z" fill="#FEEBE9" stroke-linecap="round" stroke-linejoin="miter"></path></svg>